<svg
   width="100%"
   height="100%"
   viewBox="0 0 300 300"
   xmlns="http://www.w3.org/2000/svg"
   opacity="0.35"
   stroke="currentColor"
   stroke-width="0.35"
   fill="none"
>
   <path
      d="M149.962,19.209c2.831,0 5.663,0.765 8.189,2.22l97.729,56.403c6.046,3.52 9.796,9.949 9.796,16.989l0,110.97c0,6.964 -3.75,13.469 -9.796,16.99l-96.046,55.484c-2.985,1.684 -6.352,2.602 -9.796,2.602c-3.444,0 -6.811,-0.918 -9.796,-2.602l-96.122,-55.561c-6.046,-3.52 -9.796,-9.949 -9.796,-16.99l-0,-110.893c-0,-6.964 3.75,-13.469 9.796,-16.989l97.729,-56.403c2.449,-1.455 5.281,-2.22 8.189,-2.22m0,-18.291c-6.046,0 -12.015,1.608 -17.296,4.669l-97.729,56.403c-11.709,6.811 -18.903,19.286 -18.98,32.831l0,110.97c0,13.546 7.194,26.02 18.903,32.755l96.046,55.485c5.74,3.29 12.245,5.051 18.903,5.051c6.658,-0 13.163,-1.761 18.903,-5.051l96.046,-55.485c11.709,-6.811 18.903,-19.286 18.903,-32.755l0,-110.97c0,-13.545 -7.194,-26.02 -18.903,-32.755l-97.576,-56.479c-5.281,-3.061 -11.25,-4.592 -17.296,-4.669l0.076,0Z"
   />
   <path
      d="M219.987,110.51l-82.423,-47.602c-1.837,-1.071 -2.526,-3.444 -1.454,-5.357c0.382,-0.612 0.842,-1.071 1.454,-1.454l10.791,-6.199c0.994,-0.612 2.219,-0.612 3.29,-0l84.643,48.903c1.225,0.689 1.99,1.99 1.99,3.367l0,97.424c0,1.377 -0.765,2.678 -1.99,3.367l-10.408,6.046c-1.837,1.072 -4.286,0.459 -5.357,-1.454c-0.306,-0.612 -0.536,-1.301 -0.536,-1.99l0,-95.051Z"
   />
   <path
      d="M61.722,199.592l-0,-38.189c-0,-2.143 1.76,-3.903 3.903,-3.903c0.689,-0 1.378,0.153 1.99,0.536l10.408,6.046c1.224,0.688 1.99,1.989 1.99,3.367l-0,23.878l49.592,28.622l-0,-57.245l-65.893,-38.036c-1.225,-0.688 -1.99,-1.989 -1.99,-3.367l-0,-19.056c-0,-1.378 0.765,-2.679 1.99,-3.367l39.107,-22.577c1.224,-0.689 2.678,-0.689 3.903,0l84.337,48.673c1.224,0.689 1.989,1.99 1.989,3.368l0,97.423c0,1.378 -0.765,2.679 -1.989,3.368l-10.408,6.046c-1.837,1.071 -4.286,0.459 -5.358,-1.455c-0.382,-0.612 -0.535,-1.301 -0.535,-1.989l-0,-95.128l-70.026,-40.408l-26.939,15.536l66.735,38.495c1.99,1.148 3.291,3.29 3.291,5.663l-0,88.852c-0,2.143 -1.76,3.903 -3.903,3.903c-0.689,-0 -1.378,-0.153 -1.99,-0.536l-78.291,-45.153c-1.224,-0.689 -1.913,-1.99 -1.913,-3.444l-0,0.077Z"
   />
</svg>
