<svg viewBox="0 0 158 176" xmlns="http://www.w3.org/2000/svg">
   <path
      d="M78.786,10.751c1.685,0.001 3.34,0.445 4.8,1.288l57.478,33.184c3.558,2.057 5.757,5.867 5.758,9.977l-0,65.28c0,4.11 -2.199,7.921 -5.758,9.977l-56.519,32.631c-1.751,1.011 -3.737,1.544 -5.759,1.544c-2.021,0 -4.007,-0.533 -5.758,-1.544l-56.519,-32.631c-3.56,-2.055 -5.76,-5.866 -5.758,-9.977l-0,-65.28c-0.001,-4.11 2.198,-7.921 5.758,-9.977l57.478,-33.184c1.459,-0.844 3.114,-1.288 4.799,-1.288m0,-10.751c-3.571,0.001 -7.08,0.941 -10.174,2.724l-57.478,33.185c-6.874,3.981 -11.124,11.343 -11.134,19.286l0,65.281c0.012,7.943 4.261,15.304 11.134,19.287l56.519,32.631c3.385,1.953 7.225,2.982 11.133,2.985c3.909,-0.004 7.748,-1.033 11.134,-2.985l56.519,-32.631c6.871,-3.985 11.12,-11.345 11.134,-19.287l-0,-65.281c-0.012,-7.943 -4.261,-15.304 -11.134,-19.286l-57.478,-33.185c-3.094,-1.783 -6.603,-2.722 -10.175,-2.724Z"
   />
   <path
      d="M119.962,64.425l-48.469,-27.981c-0.713,-0.41 -1.154,-1.172 -1.154,-1.994c0,-0.822 0.441,-1.585 1.154,-1.995l6.33,-3.655c0.593,-0.341 1.325,-0.341 1.918,-0l49.806,28.759c0.713,0.41 1.154,1.172 1.153,1.995l-0,57.293c0.001,0.822 -0.44,1.585 -1.153,1.994l-6.136,3.544c-0.35,0.202 -0.748,0.308 -1.153,0.308c-1.263,0 -2.304,-1.039 -2.305,-2.303l0.009,-55.965Z"
   />
   <path
      d="M29.477,115.194l0,-22.442c0.001,-1.264 1.041,-2.304 2.305,-2.304c0.405,0 0.802,0.107 1.153,0.309l6.136,3.543c0.713,0.41 1.154,1.172 1.153,1.995l-0,14.028l29.155,16.833l0,-33.675l-38.745,-22.366c-0.712,-0.411 -1.152,-1.173 -1.152,-1.995l-0,-11.224c0,-0.821 0.44,-1.583 1.152,-1.994l23.015,-13.29c0.712,-0.411 1.593,-0.411 2.305,-0l49.617,28.647c0.712,0.411 1.152,1.172 1.153,1.994l-0,57.294c-0.001,0.821 -0.441,1.583 -1.153,1.994l-6.141,3.543c-0.35,0.203 -0.747,0.31 -1.152,0.31c-1.262,-0 -2.301,-1.039 -2.301,-2.301c0,-0.001 0,-0.002 0,-0.003l0,-55.961l-41.18,-23.771l-15.865,9.153l39.262,22.663c1.186,0.687 1.918,1.957 1.918,3.327l0,52.269c-0.001,1.264 -1.041,2.303 -2.305,2.303c-0.405,0 -0.802,-0.106 -1.153,-0.308l-46.038,-26.563c-0.711,-0.416 -1.146,-1.184 -1.139,-2.008Z"
   />

   <style>
      path {
         fill: #000;
      }
      @media (prefers-color-scheme: dark) {
         path {
            fill: #fff;
         }
      }
   </style>
</svg>
