<svg
   xmlns="http://www.w3.org/2000/svg"
   viewBox="0 0 35.25 39.2"
   width="300"
   height="300"
   stroke-width="0.05"
   stroke="currentColor"
   fill="none"
   opacity="0.35"
>
   <path
      d="M17.62,2.51c.37,0,.74,.1,1.07,.29l12.77,7.37c.79,.46,1.28,1.3,1.28,2.22v14.5c0,.91-.49,1.76-1.28,2.22l-12.55,7.25c-.39,.22-.83,.34-1.28,.34-.45,0-.89-.12-1.28-.34L3.79,29.1c-.79-.46-1.28-1.3-1.28-2.22V12.39c0-.91,.49-1.76,1.28-2.22L16.56,2.8c.32-.19,.69-.29,1.07-.29m0-2.39c-.79,0-1.57,.21-2.26,.61L2.6,8.1C1.07,8.99,.13,10.62,.12,12.39v14.5c0,1.77,.94,3.4,2.47,4.28l12.55,7.25c.75,.43,1.6,.66,2.47,.66,.87,0,1.72-.23,2.47-.66l12.55-7.25c1.53-.89,2.47-2.52,2.47-4.28V12.39c0-1.77-.94-3.4-2.47-4.28L19.88,.73c-.69-.4-1.47-.6-2.26-.61Z"
   />
   <path
      d="M26.77,14.44l-10.77-6.22c-.24-.14-.33-.45-.19-.7,.05-.08,.11-.14,.19-.19l1.41-.81c.13-.08,.29-.08,.43,0l11.06,6.39c.16,.09,.26,.26,.26,.44v12.73c0,.18-.1,.35-.26,.44l-1.36,.79c-.24,.14-.56,.06-.7-.19-.04-.08-.07-.17-.07-.26V14.44Z"
   />
   <path
      d="M6.09,26.08v-4.99c0-.28,.23-.51,.51-.51,.09,0,.18,.02,.26,.07l1.36,.79c.16,.09,.26,.26,.26,.44v3.12l6.48,3.74v-7.48l-8.61-4.97c-.16-.09-.26-.26-.26-.44v-2.49c0-.18,.1-.35,.26-.44l5.11-2.95c.16-.09,.35-.09,.51,0l11.02,6.36c.16,.09,.26,.26,.26,.44v12.73c0,.18-.1,.35-.26,.44l-1.36,.79c-.24,.14-.56,.06-.7-.19-.05-.08-.07-.17-.07-.26v-12.43l-9.15-5.28-3.52,2.03,8.72,5.03c.26,.15,.43,.43,.43,.74v11.61c0,.28-.23,.51-.51,.51-.09,0-.18-.02-.26-.07l-10.23-5.9c-.16-.09-.25-.26-.25-.45Z"
   />
</svg>
